<svg width="48" height="48" viewBox="0 0 48 48" fill="none" xmlns="http://www.w3.org/2000/svg">
<path d="M0 0H40C44.4183 0 48 3.58172 48 8V48H4C1.79086 48 0 46.2091 0 44V0Z" fill="white"/>
<path d="M18.525 33C18.1125 33 17.7594 32.8531 17.4656 32.5594C17.1719 32.2656 17.025 31.9125 17.025 31.5V17.25H16V15.75H20.7V15H27.3V15.75H32V17.25H30.975V31.5C30.975 31.9 30.825 32.25 30.525 32.55C30.225 32.85 29.875 33 29.475 33H18.525ZM29.475 17.25H18.525V31.5H29.475V17.25ZM21.175 29.35H22.675V19.375H21.175V29.35ZM25.325 29.35H26.825V19.375H25.325V29.35Z" fill="#101D3C"/>
</svg>
