<svg width="256" height="256" viewBox="0 0 256 256" fill="none" xmlns="http://www.w3.org/2000/svg">
<path d="M37.4903 37.4903C23.8103 51.1704 13.4092 67.7735 7.06892 86.0515C0.728638 104.33 -1.38588 123.807 0.884302 143.02C3.15449 162.233 9.75031 180.681 20.176 196.978C30.6016 213.275 44.5859 226.997 61.0776 237.112C77.5692 247.227 96.1392 253.472 115.392 255.378C134.644 257.283 154.078 254.8 172.233 248.114C190.387 241.429 206.79 230.715 220.209 216.778C233.627 202.841 243.712 186.044 249.704 167.649L231.449 161.702C226.355 177.338 217.783 191.615 206.377 203.462C194.972 215.308 181.029 224.415 165.598 230.097C150.166 235.78 133.647 237.891 117.283 236.271C100.918 234.651 85.1338 229.343 71.1159 220.745C57.098 212.147 45.2114 200.484 36.3496 186.631C27.4878 172.779 21.8813 157.098 19.9517 140.767C18.022 124.436 19.8193 107.88 25.2086 92.3438C30.5978 76.8074 39.4387 62.6948 51.0668 51.0668L37.4903 37.4903Z" fill="#F09819"/>
<path d="M247.189 81.3306C240.151 63.3564 229.139 47.2068 214.977 34.0904C200.815 20.9739 183.87 11.2303 165.41 5.58875L159.798 23.9504C175.489 28.7457 189.893 37.0278 201.93 48.1768C213.968 59.3258 223.328 73.053 229.31 88.331L247.189 81.3306Z" fill="#0EC160"/>
<path d="M162.275 4.67432C141.02 -1.23287 118.599 -1.54648 97.1878 3.76391C75.776 9.07431 56.1003 19.8284 40.0691 34.9831L53.2587 48.9356C66.8852 36.0542 83.6096 26.9132 101.81 22.3993C120.01 17.8855 139.067 18.1521 157.134 23.1732L162.275 4.67432Z" fill="#1E9BE8"/>
<path d="M250.729 164.355C258.467 138.23 257.668 110.318 248.446 84.6788L230.379 91.177C238.218 112.97 238.897 136.696 232.319 158.901L250.729 164.355Z" fill="#EB3349"/>
</svg>
