<svg width="256" height="256" viewBox="0 0 256 256" fill="none" xmlns="http://www.w3.org/2000/svg">
<path d="M37.4903 37.4903C23.8103 51.1704 13.4092 67.7735 7.06892 86.0515C0.728638 104.33 -1.38588 123.807 0.884302 143.02C3.15449 162.233 9.75031 180.681 20.176 196.978C30.6016 213.275 44.5859 226.997 61.0776 237.112C77.5692 247.227 96.1392 253.472 115.392 255.378C134.644 257.283 154.078 254.8 172.233 248.114C190.387 241.429 206.79 230.715 220.209 216.778C233.627 202.841 243.712 186.044 249.704 167.649L231.449 161.702C226.355 177.338 217.783 191.615 206.377 203.462C194.972 215.308 181.029 224.415 165.598 230.097C150.166 235.78 133.647 237.891 117.283 236.271C100.918 234.651 85.1338 229.343 71.1159 220.745C57.098 212.147 45.2114 200.484 36.3496 186.631C27.4878 172.779 21.8813 157.098 19.9517 140.767C18.022 124.436 19.8193 107.88 25.2086 92.3438C30.5978 76.8074 39.4387 62.6948 51.0668 51.0668L37.4903 37.4903Z" fill="#F09819"/>
<path d="M247.189 81.3306C240.151 63.3564 229.139 47.2068 214.977 34.0904C200.815 20.9739 183.87 11.2303 165.41 5.58875L159.798 23.9504C175.489 28.7457 189.893 37.0278 201.93 48.1768C213.968 59.3258 223.328 73.053 229.31 88.331L247.189 81.3306Z" fill="#0EC160"/>
<path d="M162.275 4.67432C141.02 -1.23287 118.599 -1.54648 97.1878 3.76391C75.776 9.07431 56.1003 19.8284 40.0691 34.9831L53.2587 48.9356C66.8852 36.0542 83.6096 26.9132 101.81 22.3993C120.01 17.8855 139.067 18.1521 157.134 23.1732L162.275 4.67432Z" fill="#1E9BE8"/>
<path d="M250.729 164.355C258.467 138.23 257.668 110.318 248.446 84.6788L230.379 91.177C238.218 112.97 238.897 136.696 232.319 158.901L250.729 164.355Z" fill="#EB3349"/>
<path d="M83.7441 161.452V162.765H76.5664L76.5117 161.773L80.8047 155.047H82.124L80.6953 157.494L78.2275 161.452H83.7441ZM82.5 155.047V165H80.8525V155.047H82.5ZM91.332 159.189V160.816C91.332 161.596 91.2546 162.261 91.0996 162.812C90.9492 163.359 90.7305 163.804 90.4434 164.146C90.1562 164.487 89.8122 164.738 89.4111 164.897C89.0146 165.057 88.5703 165.137 88.0781 165.137C87.6862 165.137 87.3216 165.087 86.9844 164.986C86.6517 164.886 86.3509 164.729 86.082 164.515C85.8132 164.3 85.583 164.025 85.3916 163.688C85.2048 163.346 85.0589 162.938 84.9541 162.464C84.8538 161.99 84.8037 161.441 84.8037 160.816V159.189C84.8037 158.406 84.8812 157.745 85.0361 157.207C85.1911 156.665 85.4121 156.225 85.6992 155.888C85.9863 155.546 86.3281 155.298 86.7246 155.143C87.1257 154.988 87.5723 154.91 88.0645 154.91C88.4609 154.91 88.8255 154.96 89.1582 155.061C89.4954 155.156 89.7962 155.309 90.0605 155.519C90.3294 155.728 90.5573 156.002 90.7441 156.339C90.9355 156.672 91.0814 157.075 91.1816 157.549C91.2819 158.018 91.332 158.565 91.332 159.189ZM89.6846 161.049V158.943C89.6846 158.547 89.6618 158.198 89.6162 157.897C89.5706 157.592 89.5023 157.335 89.4111 157.125C89.3245 156.911 89.2152 156.738 89.083 156.605C88.9508 156.469 88.8005 156.371 88.6318 156.312C88.4632 156.248 88.2741 156.216 88.0645 156.216C87.8092 156.216 87.5814 156.266 87.3809 156.366C87.1803 156.462 87.0117 156.617 86.875 156.831C86.7383 157.045 86.6335 157.328 86.5605 157.679C86.4922 158.025 86.458 158.447 86.458 158.943V161.049C86.458 161.45 86.4808 161.803 86.5264 162.108C86.5719 162.414 86.6403 162.676 86.7314 162.895C86.8226 163.109 86.932 163.286 87.0596 163.428C87.1917 163.564 87.3421 163.665 87.5107 163.729C87.6839 163.792 87.873 163.824 88.0781 163.824C88.3379 163.824 88.568 163.774 88.7686 163.674C88.9691 163.574 89.1377 163.414 89.2744 163.195C89.4111 162.972 89.5137 162.683 89.582 162.327C89.6504 161.972 89.6846 161.546 89.6846 161.049ZM99.4053 163.824C99.6742 163.824 99.9157 163.772 100.13 163.667C100.349 163.558 100.524 163.407 100.656 163.216C100.793 163.024 100.868 162.803 100.882 162.553H102.434C102.424 163.031 102.283 163.466 102.01 163.858C101.736 164.25 101.374 164.562 100.923 164.795C100.472 165.023 99.9727 165.137 99.4258 165.137C98.8607 165.137 98.3685 165.041 97.9492 164.85C97.5299 164.654 97.1813 164.385 96.9033 164.043C96.6253 163.701 96.4157 163.307 96.2744 162.86C96.1377 162.414 96.0693 161.935 96.0693 161.425V161.186C96.0693 160.675 96.1377 160.197 96.2744 159.75C96.4157 159.299 96.6253 158.902 96.9033 158.561C97.1813 158.219 97.5299 157.952 97.9492 157.761C98.3685 157.565 98.8584 157.467 99.4189 157.467C100.011 157.467 100.531 157.585 100.978 157.822C101.424 158.055 101.775 158.381 102.03 158.8C102.29 159.215 102.424 159.698 102.434 160.249H100.882C100.868 159.976 100.8 159.729 100.677 159.511C100.558 159.287 100.39 159.11 100.171 158.978C99.9567 158.845 99.6992 158.779 99.3984 158.779C99.0658 158.779 98.79 158.848 98.5713 158.984C98.3525 159.117 98.1816 159.299 98.0586 159.531C97.9355 159.759 97.8467 160.017 97.792 160.304C97.7419 160.586 97.7168 160.88 97.7168 161.186V161.425C97.7168 161.73 97.7419 162.026 97.792 162.313C97.8421 162.601 97.9287 162.858 98.0518 163.086C98.1794 163.309 98.3525 163.489 98.5713 163.626C98.79 163.758 99.068 163.824 99.4053 163.824ZM103.384 161.384V161.227C103.384 160.693 103.461 160.199 103.616 159.743C103.771 159.283 103.994 158.884 104.286 158.547C104.582 158.205 104.942 157.941 105.366 157.754C105.795 157.562 106.278 157.467 106.815 157.467C107.358 157.467 107.841 157.562 108.265 157.754C108.693 157.941 109.055 158.205 109.352 158.547C109.648 158.884 109.873 159.283 110.028 159.743C110.183 160.199 110.261 160.693 110.261 161.227V161.384C110.261 161.917 110.183 162.411 110.028 162.867C109.873 163.323 109.648 163.722 109.352 164.063C109.055 164.401 108.695 164.665 108.271 164.856C107.848 165.043 107.367 165.137 106.829 165.137C106.287 165.137 105.801 165.043 105.373 164.856C104.949 164.665 104.589 164.401 104.293 164.063C103.997 163.722 103.771 163.323 103.616 162.867C103.461 162.411 103.384 161.917 103.384 161.384ZM105.031 161.227V161.384C105.031 161.716 105.065 162.031 105.134 162.327C105.202 162.623 105.309 162.883 105.455 163.106C105.601 163.33 105.788 163.505 106.016 163.633C106.243 163.76 106.515 163.824 106.829 163.824C107.134 163.824 107.399 163.76 107.622 163.633C107.85 163.505 108.037 163.33 108.183 163.106C108.328 162.883 108.436 162.623 108.504 162.327C108.577 162.031 108.613 161.716 108.613 161.384V161.227C108.613 160.898 108.577 160.589 108.504 160.297C108.436 160.001 108.326 159.739 108.176 159.511C108.03 159.283 107.843 159.105 107.615 158.978C107.392 158.845 107.125 158.779 106.815 158.779C106.506 158.779 106.237 158.845 106.009 158.978C105.785 159.105 105.601 159.283 105.455 159.511C105.309 159.739 105.202 160.001 105.134 160.297C105.065 160.589 105.031 160.898 105.031 161.227ZM114.909 157.604V165H113.255V157.604H114.909ZM117.336 157.604V158.902H110.869V157.604H117.336ZM120.091 159.025V167.844H118.443V157.604H119.961L120.091 159.025ZM124.91 161.233V161.377C124.91 161.915 124.846 162.414 124.719 162.874C124.596 163.33 124.411 163.729 124.165 164.07C123.924 164.408 123.625 164.67 123.27 164.856C122.914 165.043 122.504 165.137 122.039 165.137C121.579 165.137 121.175 165.052 120.829 164.884C120.487 164.711 120.198 164.467 119.961 164.152C119.724 163.838 119.533 163.469 119.387 163.045C119.245 162.617 119.145 162.147 119.086 161.637V161.083C119.145 160.541 119.245 160.049 119.387 159.606C119.533 159.164 119.724 158.784 119.961 158.465C120.198 158.146 120.487 157.9 120.829 157.727C121.171 157.553 121.57 157.467 122.025 157.467C122.49 157.467 122.903 157.558 123.263 157.74C123.623 157.918 123.926 158.173 124.172 158.506C124.418 158.834 124.603 159.23 124.726 159.695C124.849 160.156 124.91 160.668 124.91 161.233ZM123.263 161.377V161.233C123.263 160.892 123.231 160.575 123.167 160.283C123.103 159.987 123.003 159.727 122.866 159.504C122.729 159.281 122.554 159.107 122.34 158.984C122.13 158.857 121.877 158.793 121.581 158.793C121.289 158.793 121.039 158.843 120.829 158.943C120.619 159.039 120.444 159.174 120.303 159.347C120.161 159.52 120.052 159.723 119.975 159.955C119.897 160.183 119.842 160.431 119.811 160.7V162.026C119.865 162.354 119.959 162.655 120.091 162.929C120.223 163.202 120.41 163.421 120.651 163.585C120.897 163.744 121.212 163.824 121.595 163.824C121.891 163.824 122.144 163.76 122.354 163.633C122.563 163.505 122.734 163.33 122.866 163.106C123.003 162.879 123.103 162.617 123.167 162.32C123.231 162.024 123.263 161.71 123.263 161.377ZM128.376 164.193L130.386 157.604H132.149L129.183 166.128C129.114 166.31 129.025 166.508 128.916 166.723C128.807 166.937 128.663 167.14 128.485 167.331C128.312 167.527 128.096 167.684 127.836 167.803C127.576 167.926 127.262 167.987 126.893 167.987C126.747 167.987 126.605 167.974 126.469 167.946C126.337 167.924 126.211 167.898 126.093 167.871L126.086 166.613C126.132 166.618 126.186 166.622 126.25 166.627C126.318 166.632 126.373 166.634 126.414 166.634C126.688 166.634 126.915 166.6 127.098 166.531C127.28 166.467 127.428 166.363 127.542 166.217C127.66 166.071 127.761 165.875 127.843 165.629L128.376 164.193ZM127.241 157.604L128.998 163.141L129.292 164.877L128.15 165.171L125.464 157.604H127.241ZM134.05 157.604H135.697L135.615 160.208C135.592 160.965 135.506 161.614 135.355 162.156C135.205 162.699 135.009 163.157 134.768 163.53C134.526 163.899 134.253 164.202 133.947 164.439C133.646 164.676 133.33 164.863 132.997 165H132.512V163.701L132.744 163.688C132.94 163.478 133.109 163.268 133.25 163.059C133.396 162.844 133.519 162.61 133.619 162.354C133.719 162.095 133.797 161.792 133.852 161.445C133.911 161.099 133.95 160.687 133.968 160.208L134.05 157.604ZM134.487 157.604H139.177V165H137.536V158.998H134.487V157.604ZM132.136 163.688H140.188V167.201H138.541V165H133.804V167.201H132.129L132.136 163.688ZM146.375 160.693V161.992H142.547V160.693H146.375ZM143.025 157.604V165H141.378V157.604H143.025ZM147.564 157.604V165H145.917V157.604H147.564ZM151.023 162.594L153.929 157.604H155.576V165H153.929V160.003L151.023 165H149.376V157.604H151.023V162.594ZM159.097 157.604V165H157.449V157.604H159.097ZM163.923 157.604L160.594 162.054H158.714L158.495 160.563H159.869L161.865 157.604H163.923ZM161.995 165L159.767 161.773L161.065 160.837L164.162 165H161.995ZM164.497 161.384V161.227C164.497 160.693 164.575 160.199 164.729 159.743C164.884 159.283 165.108 158.884 165.399 158.547C165.696 158.205 166.056 157.941 166.479 157.754C166.908 157.562 167.391 157.467 167.929 157.467C168.471 157.467 168.954 157.562 169.378 157.754C169.806 157.941 170.169 158.205 170.465 158.547C170.761 158.884 170.987 159.283 171.142 159.743C171.297 160.199 171.374 160.693 171.374 161.227V161.384C171.374 161.917 171.297 162.411 171.142 162.867C170.987 163.323 170.761 163.722 170.465 164.063C170.169 164.401 169.809 164.665 169.385 164.856C168.961 165.043 168.48 165.137 167.942 165.137C167.4 165.137 166.915 165.043 166.486 164.856C166.062 164.665 165.702 164.401 165.406 164.063C165.11 163.722 164.884 163.323 164.729 162.867C164.575 162.411 164.497 161.917 164.497 161.384ZM166.145 161.227V161.384C166.145 161.716 166.179 162.031 166.247 162.327C166.315 162.623 166.423 162.883 166.568 163.106C166.714 163.33 166.901 163.505 167.129 163.633C167.357 163.76 167.628 163.824 167.942 163.824C168.248 163.824 168.512 163.76 168.735 163.633C168.963 163.505 169.15 163.33 169.296 163.106C169.442 162.883 169.549 162.623 169.617 162.327C169.69 162.031 169.727 161.716 169.727 161.384V161.227C169.727 160.898 169.69 160.589 169.617 160.297C169.549 160.001 169.439 159.739 169.289 159.511C169.143 159.283 168.956 159.105 168.729 158.978C168.505 158.845 168.239 158.779 167.929 158.779C167.619 158.779 167.35 158.845 167.122 158.978C166.899 159.105 166.714 159.283 166.568 159.511C166.423 159.739 166.315 160.001 166.247 160.297C166.179 160.589 166.145 160.898 166.145 161.227ZM176.351 161.835H173.985L173.972 160.673H175.913C176.232 160.673 176.494 160.641 176.699 160.577C176.909 160.513 177.064 160.418 177.164 160.29C177.264 160.158 177.314 159.998 177.314 159.812C177.314 159.657 177.285 159.522 177.226 159.408C177.166 159.29 177.075 159.194 176.952 159.121C176.834 159.044 176.683 158.989 176.501 158.957C176.323 158.921 176.116 158.902 175.879 158.902H174.532V165H172.885V157.604H175.879C176.353 157.604 176.779 157.645 177.157 157.727C177.54 157.809 177.866 157.934 178.135 158.103C178.404 158.271 178.609 158.485 178.75 158.745C178.896 159 178.969 159.301 178.969 159.647C178.969 159.875 178.919 160.09 178.818 160.29C178.723 160.491 178.579 160.668 178.388 160.823C178.196 160.978 177.962 161.106 177.684 161.206C177.406 161.302 177.087 161.361 176.727 161.384L176.351 161.835ZM176.351 165H173.507L174.163 163.701H176.351C176.642 163.701 176.884 163.665 177.075 163.592C177.267 163.519 177.408 163.414 177.499 163.277C177.595 163.136 177.643 162.97 177.643 162.778C177.643 162.582 177.597 162.414 177.506 162.272C177.415 162.131 177.273 162.024 177.082 161.951C176.895 161.874 176.651 161.835 176.351 161.835H174.471L174.484 160.673H176.72L177.191 161.124C177.661 161.156 178.05 161.256 178.36 161.425C178.67 161.593 178.903 161.805 179.058 162.061C179.213 162.316 179.29 162.594 179.29 162.895C179.29 163.241 179.224 163.546 179.092 163.811C178.964 164.075 178.773 164.296 178.518 164.474C178.267 164.647 177.959 164.779 177.595 164.87C177.23 164.957 176.815 165 176.351 165Z" fill="white"/>
<g clip-path="url(#clip0_3_59)">
<path d="M104 127V124.35C104 123.064 104.692 122.018 106.075 121.211C107.458 120.404 109.273 120 111.519 120C111.924 120 112.314 120.008 112.689 120.025C113.063 120.042 113.433 120.078 113.8 120.133C113.533 120.711 113.333 121.297 113.2 121.891C113.067 122.485 113 123.104 113 123.75V127H104ZM116 127V123.75C116 122.683 116.292 121.708 116.875 120.825C117.458 119.942 118.283 119.167 119.35 118.5C120.417 117.833 121.692 117.333 123.175 117C124.658 116.667 126.267 116.5 128 116.5C129.767 116.5 131.392 116.667 132.875 117C134.358 117.333 135.633 117.833 136.7 118.5C137.767 119.167 138.583 119.942 139.15 120.825C139.717 121.708 140 122.683 140 123.75V127H116ZM143 127V123.75C143 123.088 142.942 122.464 142.825 121.878C142.708 121.293 142.517 120.712 142.25 120.136C142.617 120.079 142.986 120.042 143.359 120.025C143.731 120.008 144.111 120 144.5 120C146.75 120 148.562 120.396 149.938 121.188C151.312 121.981 152 123.035 152 124.35V127H143ZM119 124H137V123.7C137 122.467 136.158 121.458 134.475 120.675C132.792 119.892 130.633 119.5 128 119.5C125.367 119.5 123.208 119.892 121.525 120.675C119.842 121.458 119 122.483 119 123.75V124ZM111.478 118.5C110.526 118.5 109.708 118.157 109.025 117.472C108.342 116.786 108 115.963 108 115C108 114.033 108.343 113.208 109.028 112.525C109.714 111.842 110.537 111.5 111.5 111.5C112.467 111.5 113.292 111.842 113.975 112.525C114.658 113.208 115 114.041 115 115.022C115 115.974 114.658 116.792 113.975 117.475C113.292 118.158 112.459 118.5 111.478 118.5ZM144.478 118.5C143.526 118.5 142.708 118.157 142.025 117.472C141.342 116.786 141 115.963 141 115C141 114.033 141.343 113.208 142.028 112.525C142.714 111.842 143.538 111.5 144.5 111.5C145.467 111.5 146.292 111.842 146.975 112.525C147.658 113.208 148 114.041 148 115.022C148 115.974 147.658 116.792 146.975 117.475C146.292 118.158 145.459 118.5 144.478 118.5ZM128 115C126.333 115 124.917 114.417 123.75 113.25C122.583 112.083 122 110.667 122 109C122 107.3 122.583 105.875 123.75 104.725C124.917 103.575 126.333 103 128 103C129.7 103 131.125 103.575 132.275 104.725C133.425 105.875 134 107.3 134 109C134 110.667 133.425 112.083 132.275 113.25C131.125 114.417 129.7 115 128 115ZM128.018 112C128.873 112 129.583 111.711 130.15 111.132C130.717 110.554 131 109.837 131 108.982C131 108.127 130.714 107.417 130.143 106.85C129.571 106.283 128.863 106 128.018 106C127.173 106 126.458 106.286 125.875 106.857C125.292 107.429 125 108.137 125 108.982C125 109.827 125.289 110.542 125.868 111.125C126.446 111.708 127.163 112 128.018 112Z" fill="white"/>
</g>
<defs>
<clipPath id="clip0_3_59">
<rect width="48" height="48" fill="white" transform="translate(104 91)"/>
</clipPath>
</defs>
</svg>
